{
  "_id": "C:/Transcode/Source Folder/SampleVideo_1280x720_1mb.mp4",
  "file": "C:/Transcode/Source Folder/SampleVideo_1280x720_1mb.mp4",
  "DB": "2MY5YD7P8",
  "footprintId": "KA_y0Hm3Ld",
  "hasClosedCaptions": false,
  "container": "mp4",
  "scannerReads": {
    "ffProbeRead": "success",
    "exiftoolRead": "success",
    "mediaInfoRead": "success",
    "closedCaptionRead": "\"Unable to run CCExtractor\""
  },
  "ffProbeData": {
    "streams": [
      {
        "index": 0,
        "codec_name": "h264",
        "codec_long_name": "H.264 / AVC / MPEG-4 AVC / MPEG-4 part 10",
        "profile": "High",
        "codec_type": "video",
        "codec_time_base": "1001/48000",
        "codec_tag_string": "[0][0][0][0]",
        "codec_tag": "0x0000",
        "width": 1920,
        "height": 1080,
        "coded_width": 1920,
        "coded_height": 1088,
        "closed_captions": 0,
        "has_b_frames": 4,
        "sample_aspect_ratio": "1:1",
        "display_aspect_ratio": "16:9",
        "pix_fmt": "yuv420p",
        "level": 41,
        "chroma_location": "left",
        "field_order": "progressive",
        "refs": 1,
        "is_avc": "true",
        "nal_length_size": "4",
        "r_frame_rate": "24000/1001",
        "avg_frame_rate": "24000/1001",
        "time_base": "1/1000",
        "start_pts": 0,
        "start_time": "0.000000",
        "bits_per_raw_sample": "8",
        "disposition": {
          "default": 1,
          "dub": 0,
          "original": 0,
          "comment": 0,
          "lyrics": 0,
          "karaoke": 0,
          "forced": 0,
          "hearing_impaired": 0,
          "visual_impaired": 0,
          "clean_effects": 0,
          "attached_pic": 0,
          "timed_thumbnails": 0
        },
        "tags": {
          "BPS-eng": "36863664",
          "DURATION-eng": "00:23:42.046000000",
          "NUMBER_OF_FRAMES-eng": "34095",
          "NUMBER_OF_BYTES-eng": "6552728258",
          "_STATISTICS_WRITING_APP-eng": "mkvmerge v29.0.0 ('Like It Or Not') 32-bit",
          "_STATISTICS_WRITING_DATE_UTC-eng": "2020-05-11 04:56:38",
          "_STATISTICS_TAGS-eng": "BPS DURATION NUMBER_OF_FRAMES NUMBER_OF_BYTES"
        }
      },
      {
        "index": 1,
        "codec_name": "pcm_s16le",
        "codec_long_name": "PCM signed 16-bit little-endian",
        "codec_type": "audio",
        "codec_time_base": "1/48000",
        "codec_tag_string": "[0][0][0][0]",
        "codec_tag": "0x0000",
        "sample_fmt": "s16",
        "sample_rate": "48000",
        "channels": 2,
        "bits_per_sample": 16,
        "r_frame_rate": "0/0",
        "avg_frame_rate": "0/0",
        "time_base": "1/1000",
        "start_pts": 900,
        "start_time": "0.900000",
        "bit_rate": "1536000",
        "disposition": {
          "default": 1,
          "dub": 0,
          "original": 0,
          "comment": 0,
          "lyrics": 0,
          "karaoke": 0,
          "forced": 0,
          "hearing_impaired": 0,
          "visual_impaired": 0,
          "clean_effects": 0,
          "attached_pic": 0,
          "timed_thumbnails": 0
        },
        "tags": {
          "language": "eng",
          "title": "Stereo",
          "BPS-eng": "1536000",
          "DURATION-eng": "00:23:41.550000000",
          "NUMBER_OF_FRAMES-eng": "42647",
          "NUMBER_OF_BYTES-eng": "272937600",
          "_STATISTICS_WRITING_APP-eng": "mkvmerge v29.0.0 ('Like It Or Not') 32-bit",
          "_STATISTICS_WRITING_DATE_UTC-eng": "2020-05-11 04:56:38",
          "_STATISTICS_TAGS-eng": "BPS DURATION NUMBER_OF_FRAMES NUMBER_OF_BYTES"
        }
      },
      {
        "index": 2,
        "codec_name": "ac3",
        "codec_long_name": "ATSC A/52A (AC-3)",
        "codec_type": "audio",
        "codec_time_base": "1/48000",
        "codec_tag_string": "[0][0][0][0]",
        "codec_tag": "0x0000",
        "sample_fmt": "fltp",
        "sample_rate": "48000",
        "channels": 2,
        "channel_layout": "stereo",
        "bits_per_sample": 0,
        "dmix_mode": "-1",
        "ltrt_cmixlev": "-1.000000",
        "ltrt_surmixlev": "-1.000000",
        "loro_cmixlev": "-1.000000",
        "loro_surmixlev": "-1.000000",
        "r_frame_rate": "0/0",
        "avg_frame_rate": "0/0",
        "time_base": "1/1000",
        "start_pts": 0,
        "start_time": "0.000000",
        "bit_rate": "192000",
        "disposition": {
          "default": 0,
          "dub": 0,
          "original": 0,
          "comment": 0,
          "lyrics": 0,
          "karaoke": 0,
          "forced": 0,
          "hearing_impaired": 0,
          "visual_impaired": 0,
          "clean_effects": 0,
          "attached_pic": 0,
          "timed_thumbnails": 0
        },
        "tags": {
          "language": "eng",
          "title": "Stereo",
          "BPS-eng": "192000",
          "DURATION-eng": "00:23:42.048000000",
          "NUMBER_OF_FRAMES-eng": "44439",
          "NUMBER_OF_BYTES-eng": "34129152",
          "_STATISTICS_WRITING_APP-eng": "mkvmerge v29.0.0 ('Like It Or Not') 32-bit",
          "_STATISTICS_WRITING_DATE_UTC-eng": "2020-05-11 04:56:38",
          "_STATISTICS_TAGS-eng": "BPS DURATION NUMBER_OF_FRAMES NUMBER_OF_BYTES"
        }
      },
      {
        "index": 3,
        "codec_name": "pcm_s24le",
        "codec_long_name": "PCM signed 24-bit little-endian",
        "codec_type": "audio",
        "codec_time_base": "1/48000",
        "codec_tag_string": "[0][0][0][0]",
        "codec_tag": "0x0000",
        "sample_fmt": "s32",
        "sample_rate": "48000",
        "channels": 2,
        "bits_per_sample": 24,
        "r_frame_rate": "0/0",
        "avg_frame_rate": "0/0",
        "time_base": "1/1000",
        "start_pts": 0,
        "start_time": "0.000000",
        "bit_rate": "2304000",
        "bits_per_raw_sample": "24",
        "disposition": {
          "default": 0,
          "dub": 0,
          "original": 0,
          "comment": 0,
          "lyrics": 0,
          "karaoke": 0,
          "forced": 0,
          "hearing_impaired": 0,
          "visual_impaired": 0,
          "clean_effects": 0,
          "attached_pic": 0,
          "timed_thumbnails": 0
        },
        "tags": {
          "language": "jpn",
          "title": "Stereo",
          "BPS-eng": "2304000",
          "DURATION-eng": "00:23:42.050000000",
          "NUMBER_OF_FRAMES-eng": "284410",
          "NUMBER_OF_BYTES-eng": "409550400",
          "_STATISTICS_WRITING_APP-eng": "mkvmerge v29.0.0 ('Like It Or Not') 32-bit",
          "_STATISTICS_WRITING_DATE_UTC-eng": "2020-05-11 04:56:38",
          "_STATISTICS_TAGS-eng": "BPS DURATION NUMBER_OF_FRAMES NUMBER_OF_BYTES"
        }
      },
      {
        "index": 4,
        "codec_name": "hdmv_pgs_subtitle",
        "codec_long_name": "HDMV Presentation Graphic Stream subtitles",
        "codec_type": "subtitle",
        "codec_time_base": "0/1",
        "codec_tag_string": "[0][0][0][0]",
        "codec_tag": "0x0000",
        "r_frame_rate": "0/0",
        "avg_frame_rate": "0/0",
        "time_base": "1/1000",
        "start_pts": 0,
        "start_time": "0.000000",
        "duration_ts": 1422450,
        "duration": "1422.450000",
        "disposition": {
          "default": 0,
          "dub": 0,
          "original": 0,
          "comment": 0,
          "lyrics": 0,
          "karaoke": 0,
          "forced": 0,
          "hearing_impaired": 0,
          "visual_impaired": 0,
          "clean_effects": 0,
          "attached_pic": 0,
          "timed_thumbnails": 0
        },
        "tags": {
          "language": "eng",
          "title": "Signs",
          "BPS-eng": "21061",
          "DURATION-eng": "00:12:12.898000000",
          "NUMBER_OF_FRAMES-eng": "76",
          "NUMBER_OF_BYTES-eng": "1929528",
          "_STATISTICS_WRITING_APP-eng": "mkvmerge v29.0.0 ('Like It Or Not') 32-bit",
          "_STATISTICS_WRITING_DATE_UTC-eng": "2020-05-11 04:56:38",
          "_STATISTICS_TAGS-eng": "BPS DURATION NUMBER_OF_FRAMES NUMBER_OF_BYTES"
        }
      },
      {
        "index": 5,
        "codec_name": "hdmv_pgs_subtitle",
        "codec_long_name": "HDMV Presentation Graphic Stream subtitles",
        "codec_type": "subtitle",
        "codec_time_base": "0/1",
        "codec_tag_string": "[0][0][0][0]",
        "codec_tag": "0x0000",
        "width": 1920,
        "height": 1080,
        "r_frame_rate": "0/0",
        "avg_frame_rate": "0/0",
        "time_base": "1/1000",
        "start_pts": 4796,
        "start_time": "4.796000",
        "disposition": {
          "default": 0,
          "dub": 0,
          "original": 0,
          "comment": 0,
          "lyrics": 0,
          "karaoke": 0,
          "forced": 0,
          "hearing_impaired": 0,
          "visual_impaired": 0,
          "clean_effects": 0,
          "attached_pic": 0,
          "timed_thumbnails": 0
        },
        "tags": {
          "language": "eng",
          "BPS-eng": "327858",
          "DURATION-eng": "00:21:58.276000000",
          "NUMBER_OF_FRAMES-eng": "2012",
          "NUMBER_OF_BYTES-eng": "54025970",
          "_STATISTICS_WRITING_APP-eng": "mkvmerge v29.0.0 ('Like It Or Not') 32-bit",
          "_STATISTICS_WRITING_DATE_UTC-eng": "2020-05-11 04:56:38",
          "_STATISTICS_TAGS-eng": "BPS DURATION NUMBER_OF_FRAMES NUMBER_OF_BYTES"
        }
      },
      {
        "index": 6,
        "codec_name": "hdmv_pgs_subtitle",
        "codec_long_name": "HDMV Presentation Graphic Stream subtitles",
        "codec_type": "subtitle",
        "codec_time_base": "0/1",
        "codec_tag_string": "[0][0][0][0]",
        "codec_tag": "0x0000",
        "width": 1920,
        "height": 1080,
        "r_frame_rate": "0/0",
        "avg_frame_rate": "0/0",
        "time_base": "1/1000",
        "start_pts": 4796,
        "start_time": "4.796000",
        "disposition": {
          "default": 0,
          "dub": 0,
          "original": 0,
          "comment": 0,
          "lyrics": 0,
          "karaoke": 0,
          "forced": 0,
          "hearing_impaired": 0,
          "visual_impaired": 0,
          "clean_effects": 0,
          "attached_pic": 0,
          "timed_thumbnails": 0
        },
        "tags": {
          "language": "spa",
          "BPS-eng": "313527",
          "DURATION-eng": "00:21:58.276000000",
          "NUMBER_OF_FRAMES-eng": "2012",
          "NUMBER_OF_BYTES-eng": "51664395",
          "_STATISTICS_WRITING_APP-eng": "mkvmerge v29.0.0 ('Like It Or Not') 32-bit",
          "_STATISTICS_WRITING_DATE_UTC-eng": "2020-05-11 04:56:38",
          "_STATISTICS_TAGS-eng": "BPS DURATION NUMBER_OF_FRAMES NUMBER_OF_BYTES"
        }
      },
      {
        "index": 7,
        "codec_name": "ass",
        "codec_long_name": "ASS (Advanced SSA) subtitle",
        "codec_type": "subtitle",
        "codec_time_base": "0/1",
        "codec_tag_string": "[0][0][0][0]",
        "codec_tag": "0x0000",
        "r_frame_rate": "0/0",
        "avg_frame_rate": "0/0",
        "time_base": "1/1000",
        "start_pts": 0,
        "start_time": "0.000000",
        "duration_ts": 1422450,
        "duration": "1422.450000",
        "disposition": {
          "default": 1,
          "dub": 0,
          "original": 0,
          "comment": 0,
          "lyrics": 0,
          "karaoke": 0,
          "forced": 0,
          "hearing_impaired": 0,
          "visual_impaired": 0,
          "clean_effects": 0,
          "attached_pic": 0,
          "timed_thumbnails": 0
        },
        "tags": {
          "language": "eng",
          "title": "Signs/Songs",
          "BPS-eng": "269",
          "DURATION-eng": "00:19:49.360000000",
          "NUMBER_OF_FRAMES-eng": "208",
          "NUMBER_OF_BYTES-eng": "40106",
          "_STATISTICS_WRITING_APP-eng": "mkvmerge v29.0.0 ('Like It Or Not') 32-bit",
          "_STATISTICS_WRITING_DATE_UTC-eng": "2020-05-11 04:56:38",
          "_STATISTICS_TAGS-eng": "BPS DURATION NUMBER_OF_FRAMES NUMBER_OF_BYTES"
        }
      },
      {
        "index": 8,
        "codec_name": "ass",
        "codec_long_name": "ASS (Advanced SSA) subtitle",
        "codec_type": "subtitle",
        "codec_time_base": "0/1",
        "codec_tag_string": "[0][0][0][0]",
        "codec_tag": "0x0000",
        "r_frame_rate": "0/0",
        "avg_frame_rate": "0/0",
        "time_base": "1/1000",
        "start_pts": 4630,
        "start_time": "4.630000",
        "disposition": {
          "default": 0,
          "dub": 0,
          "original": 0,
          "comment": 0,
          "lyrics": 0,
          "karaoke": 0,
          "forced": 0,
          "hearing_impaired": 0,
          "visual_impaired": 0,
          "clean_effects": 0,
          "attached_pic": 0,
          "timed_thumbnails": 0
        },
        "tags": {
          "language": "eng",
          "title": "Full Subtitles [Vivid-Watashi]",
          "BPS-eng": "332",
          "DURATION-eng": "00:23:36.290000000",
          "NUMBER_OF_FRAMES-eng": "512",
          "NUMBER_OF_BYTES-eng": "58911",
          "_STATISTICS_WRITING_APP-eng": "mkvmerge v29.0.0 ('Like It Or Not') 32-bit",
          "_STATISTICS_WRITING_DATE_UTC-eng": "2020-05-11 04:56:38",
          "_STATISTICS_TAGS-eng": "BPS DURATION NUMBER_OF_FRAMES NUMBER_OF_BYTES"
        }
      },
      {
        "index": 9,
        "codec_name": "ttf",
        "codec_long_name": "TrueType font",
        "codec_type": "attachment",
        "codec_tag_string": "[0][0][0][0]",
        "codec_tag": "0x0000",
        "r_frame_rate": "0/0",
        "avg_frame_rate": "0/0",
        "time_base": "1/90000",
        "start_pts": 0,
        "start_time": "0.000000",
        "duration_ts": 128020500,
        "duration": "1422.450000",
        "disposition": {
          "default": 0,
          "dub": 0,
          "original": 0,
          "comment": 0,
          "lyrics": 0,
          "karaoke": 0,
          "forced": 0,
          "hearing_impaired": 0,
          "visual_impaired": 0,
          "clean_effects": 0,
          "attached_pic": 0,
          "timed_thumbnails": 0
        },
        "tags": {
          "filename": "Fontin_Sans_BI.otf",
          "mimetype": "application/x-truetype-font"
        }
      },
      {
        "index": 10,
        "codec_name": "ttf",
        "codec_long_name": "TrueType font",
        "codec_type": "attachment",
        "codec_tag_string": "[0][0][0][0]",
        "codec_tag": "0x0000",
        "r_frame_rate": "0/0",
        "avg_frame_rate": "0/0",
        "time_base": "1/90000",
        "start_pts": 0,
        "start_time": "0.000000",
        "duration_ts": 128020500,
        "duration": "1422.450000",
        "disposition": {
          "default": 0,
          "dub": 0,
          "original": 0,
          "comment": 0,
          "lyrics": 0,
          "karaoke": 0,
          "forced": 0,
          "hearing_impaired": 0,
          "visual_impaired": 0,
          "clean_effects": 0,
          "attached_pic": 0,
          "timed_thumbnails": 0
        },
        "tags": {
          "filename": "Lithograph.ttf",
          "mimetype": "application/x-truetype-font"
        }
      },
      {
        "index": 11,
        "codec_name": "ttf",
        "codec_long_name": "TrueType font",
        "codec_type": "attachment",
        "codec_tag_string": "[0][0][0][0]",
        "codec_tag": "0x0000",
        "r_frame_rate": "0/0",
        "avg_frame_rate": "0/0",
        "time_base": "1/90000",
        "start_pts": 0,
        "start_time": "0.000000",
        "duration_ts": 128020500,
        "duration": "1422.450000",
        "disposition": {
          "default": 0,
          "dub": 0,
          "original": 0,
          "comment": 0,
          "lyrics": 0,
          "karaoke": 0,
          "forced": 0,
          "hearing_impaired": 0,
          "visual_impaired": 0,
          "clean_effects": 0,
          "attached_pic": 0,
          "timed_thumbnails": 0
        },
        "tags": {
          "filename": "Odense.ttf",
          "mimetype": "application/x-truetype-font"
        }
      },
      {
        "index": 12,
        "codec_name": "ttf",
        "codec_long_name": "TrueType font",
        "codec_type": "attachment",
        "codec_tag_string": "[0][0][0][0]",
        "codec_tag": "0x0000",
        "r_frame_rate": "0/0",
        "avg_frame_rate": "0/0",
        "time_base": "1/90000",
        "start_pts": 0,
        "start_time": "0.000000",
        "duration_ts": 128020500,
        "duration": "1422.450000",
        "disposition": {
          "default": 0,
          "dub": 0,
          "original": 0,
          "comment": 0,
          "lyrics": 0,
          "karaoke": 0,
          "forced": 0,
          "hearing_impaired": 0,
          "visual_impaired": 0,
          "clean_effects": 0,
          "attached_pic": 0,
          "timed_thumbnails": 0
        },
        "tags": {
          "filename": "SWZ721H.ttf",
          "mimetype": "application/x-truetype-font"
        }
      },
      {
        "index": 13,
        "codec_name": "ttf",
        "codec_long_name": "TrueType font",
        "codec_type": "attachment",
        "codec_tag_string": "[0][0][0][0]",
        "codec_tag": "0x0000",
        "r_frame_rate": "0/0",
        "avg_frame_rate": "0/0",
        "time_base": "1/90000",
        "start_pts": 0,
        "start_time": "0.000000",
        "duration_ts": 128020500,
        "duration": "1422.450000",
        "disposition": {
          "default": 0,
          "dub": 0,
          "original": 0,
          "comment": 0,
          "lyrics": 0,
          "karaoke": 0,
          "forced": 0,
          "hearing_impaired": 0,
          "visual_impaired": 0,
          "clean_effects": 0,
          "attached_pic": 0,
          "timed_thumbnails": 0
        },
        "tags": {
          "filename": "SWZ721L.ttf",
          "mimetype": "application/x-truetype-font"
        }
      },
      {
        "index": 14,
        "codec_name": "ttf",
        "codec_long_name": "TrueType font",
        "codec_type": "attachment",
        "codec_tag_string": "[0][0][0][0]",
        "codec_tag": "0x0000",
        "r_frame_rate": "0/0",
        "avg_frame_rate": "0/0",
        "time_base": "1/90000",
        "start_pts": 0,
        "start_time": "0.000000",
        "duration_ts": 128020500,
        "duration": "1422.450000",
        "disposition": {
          "default": 0,
          "dub": 0,
          "original": 0,
          "comment": 0,
          "lyrics": 0,
          "karaoke": 0,
          "forced": 0,
          "hearing_impaired": 0,
          "visual_impaired": 0,
          "clean_effects": 0,
          "attached_pic": 0,
          "timed_thumbnails": 0
        },
        "tags": {
          "filename": "SWZ721M.TTF",
          "mimetype": "application/x-truetype-font"
        }
      },
      {
        "index": 15,
        "codec_name": "ttf",
        "codec_long_name": "TrueType font",
        "codec_type": "attachment",
        "codec_tag_string": "[0][0][0][0]",
        "codec_tag": "0x0000",
        "r_frame_rate": "0/0",
        "avg_frame_rate": "0/0",
        "time_base": "1/90000",
        "start_pts": 0,
        "start_time": "0.000000",
        "duration_ts": 128020500,
        "duration": "1422.450000",
        "disposition": {
          "default": 0,
          "dub": 0,
          "original": 0,
          "comment": 0,
          "lyrics": 0,
          "karaoke": 0,
          "forced": 0,
          "hearing_impaired": 0,
          "visual_impaired": 0,
          "clean_effects": 0,
          "attached_pic": 0,
          "timed_thumbnails": 0
        },
        "tags": {
          "filename": "CWMAGIK.TTF",
          "mimetype": "application/x-truetype-font"
        }
      },
      {
        "index": 16,
        "codec_name": "ttf",
        "codec_long_name": "TrueType font",
        "codec_type": "attachment",
        "codec_tag_string": "[0][0][0][0]",
        "codec_tag": "0x0000",
        "r_frame_rate": "0/0",
        "avg_frame_rate": "0/0",
        "time_base": "1/90000",
        "start_pts": 0,
        "start_time": "0.000000",
        "duration_ts": 128020500,
        "duration": "1422.450000",
        "disposition": {
          "default": 0,
          "dub": 0,
          "original": 0,
          "comment": 0,
          "lyrics": 0,
          "karaoke": 0,
          "forced": 0,
          "hearing_impaired": 0,
          "visual_impaired": 0,
          "clean_effects": 0,
          "attached_pic": 0,
          "timed_thumbnails": 0
        },
        "tags": {
          "filename": "Fontin_Sans.otf",
          "mimetype": "application/x-truetype-font"
        }
      }
    ],
    "format": {
      "filename": "testfile.mkv",
      "nb_streams": 17,
      "nb_programs": 0,
      "format_name": "matroska,webm",
      "format_long_name": "Matroska / WebM",
      "start_time": "0.000000",
      "duration": "1422.450000",
      "size": "7317886175",
      "bit_rate": "41156518",
      "probe_score": 100,
      "tags": {
        "encoder": "libebml v1.3.6 + libmatroska v1.4.9",
        "creation_time": "2020-05-11T04:56:38.000000Z"
      }
    }
  },
  "file_size": 1.0075750350952148,
  "video_resolution": "720p",
  "fileMedium": "video",
  "video_codec_name": "h264",
  "audio_codec_name": "",
  "lastPluginDetails": "none",
  "createdAt": 1653029288316,
  "bit_rate": 1591143,
  "duration": 5,
  "statSync": {
    "dev": 3832468976,
    "mode": 33060,
    "nlink": 1,
    "uid": 0,
    "gid": 0,
    "rdev": 0,
    "blksize": 4096,
    "ino": 1688849864649366,
    "size": 1056519,
    "blocks": 2064,
    "atimeMs": 1653029288299.0342,
    "mtimeMs": 1569306262000,
    "ctimeMs": 1650864287160.0793,
    "birthtimeMs": 1652683715285.7583,
    "atime": "2022-05-20T06:48:08.299Z",
    "mtime": "2019-09-24T06:24:22.000Z",
    "ctime": "2022-04-25T05:24:47.160Z",
    "birthtime": "2022-05-16T06:48:35.286Z"
  },
  "HealthCheck": "",
  "TranscodeDecisionMaker": "",
  "lastHealthCheckDate": 0,
  "holdUntil": 0,
  "lastTranscodeDate": 0,
  "bumped": false,
  "history": "",
  "oldSize": 0,
  "newSize": 0,
  "videoStreamIndex": 0,
  "lastUpdate": 1653028721083,
  "meta": {
    "SourceFile": "C:/Transcode/Source Folder/SampleVideo_1280x720_1mb.mp4",
    "errors": [],
    "Duration": 5.312,
    "PreviewDuration": 0,
    "SelectionDuration": 0,
    "TrackDuration": 5.28,
    "MediaDuration": 5.28,
    "ExifToolVersion": 12.4,
    "FileName": "SampleVideo_1280x720_1mb.mp4",
    "Directory": "C:/Transcode/Source Folder",
    "FileSize": "1032 KiB",
    "FileModifyDate": {
      "year": 2019,
      "month": 9,
      "day": 24,
      "hour": 7,
      "minute": 24,
      "second": 22,
      "millisecond": 0,
      "tzoffsetMinutes": 60,
      "rawValue": "2019:09:24 07:24:22+01:00"
    },
    "FileAccessDate": {
      "year": 2022,
      "month": 5,
      "day": 20,
      "hour": 7,
      "minute": 48,
      "second": 6,
      "millisecond": 0,
      "tzoffsetMinutes": 60,
      "rawValue": "2022:05:20 07:48:06+01:00"
    },
    "FileCreateDate": {
      "year": 2022,
      "month": 5,
      "day": 16,
      "hour": 7,
      "minute": 48,
      "second": 35,
      "millisecond": 0,
      "tzoffsetMinutes": 60,
      "rawValue": "2022:05:16 07:48:35+01:00"
    },
    "FilePermissions": "-r--r--r--",
    "FileType": "MP4",
    "FileTypeExtension": "mp4",
    "MIMEType": "video/mp4",
    "MajorBrand": "MP4 Base Media v1 [IS0 14496-12:2003]",
    "MinorVersion": "0.2.0",
    "CompatibleBrands": [
      "isom",
      "iso2",
      "avc1",
      "mp41"
    ],
    "MediaDataSize": 0,
    "MediaDataOffset": 1051515,
    "MovieHeaderVersion": 0,
    "CreateDate": {
      "year": 1970,
      "month": 1,
      "day": 8,
      "hour": 0,
      "minute": 0,
      "second": 0,
      "millisecond": 0,
      "rawValue": "1970:01:08 00:00:00"
    },
    "ModifyDate": {
      "year": 2014,
      "month": 7,
      "day": 19,
      "hour": 17,
      "minute": 15,
      "second": 29,
      "millisecond": 0,
      "rawValue": "2014:07:19 17:15:29"
    },
    "TimeScale": 1000,
    "PreferredRate": 1,
    "PreferredVolume": "100.00%",
    "PreviewTime": "0 s",
    "PosterTime": "0 s",
    "SelectionTime": "0 s",
    "CurrentTime": "0 s",
    "NextTrackID": 3,
    "TrackHeaderVersion": 0,
    "TrackCreateDate": "0000:00:00 00:00:00",
    "TrackModifyDate": "0000:00:00 00:00:00",
    "TrackID": 1,
    "TrackLayer": 0,
    "TrackVolume": "0.00%",
    "ImageWidth": 1280,
    "ImageHeight": 720,
    "GraphicsMode": "srcCopy",
    "OpColor": "0 0 0",
    "CompressorID": "avc1",
    "SourceImageWidth": 1280,
    "SourceImageHeight": 720,
    "XResolution": 72,
    "YResolution": 72,
    "BitDepth": 24,
    "VideoFrameRate": 25,
    "MatrixStructure": "1 0 0 0 1 0 0 0 1",
    "MediaHeaderVersion": 0,
    "MediaCreateDate": "0000:00:00 00:00:00",
    "MediaModifyDate": "0000:00:00 00:00:00",
    "MediaTimeScale": 48000,
    "MediaLanguageCode": "und",
    "HandlerDescription": "SoundHandler",
    "Balance": 0,
    "AudioFormat": "mp4a",
    "AudioChannels": 2,
    "AudioBitsPerSample": 16,
    "AudioSampleRate": 48000,
    "HandlerType": "Metadata",
    "HandlerVendorID": "Apple",
    "Encoder": "Lavf53.24.2",
    "Title": "Sample title test",
    "Composer": "th",
    "BeatsPerMinute": 0,
    "ContentCreateDate": 2018,
    "Genre": "this",
    "Artist": "hhj",
    "Comment": "hhk",
    "Subtitle": "jj",
    "Mood": "lik",
    "ContentDistributor": "cont",
    "Conductor": "jo",
    "Writer": "writ",
    "InitialKey": "ho",
    "Producer": "prod",
    "ParentalRating": "par",
    "Director": "dir",
    "Period": "pol",
    "Publisher": "pub",
    "PromotionURL": "prom",
    "AuthorURL": "auth",
    "EncodedBy": "enc",
    "Category": "h",
    "ImageSize": "1280x720",
    "Megapixels": 0.922,
    "AvgBitrate": "1.58 Mbps",
    "Rotation": 0
  },
  "mediaInfo": {
    "@ref": "",
    "track": [
      {
        "@type": "General",
        "VideoCount": "1",
        "AudioCount": "1",
        "Format": "MPEG-4",
        "Format_Profile": "Base Media",
        "CodecID": "isom",
        "CodecID_Compatible": "isom/iso2/avc1/mp41",
        "FileSize": "1056519",
        "Duration": "5.312",
        "OverallBitRate_Mode": "VBR",
        "OverallBitRate": "1591143",
        "FrameRate": "25.000",
        "FrameCount": "132",
        "StreamSize": "5060",
        "HeaderSize": "40",
        "DataSize": "1051467",
        "FooterSize": "5012",
        "IsStreamable": "No",
        "Title": "Sample title test",
        "Movie": "Sample title test",
        "Performer": "hhj",
        "Composer": "th",
        "Genre": "this",
        "Recorded_Date": "2018",
        "Encoded_Date": "UTC 1970-01-08 00:00:00",
        "Tagged_Date": "UTC 2014-07-19 17:15:29",
        "Encoded_Application": "Lavf53.24.2",
        "Comment": "hhk"
      },
      {
        "@type": "Video",
        "StreamOrder": "0",
        "ID": "1",
        "Format": "AVC",
        "Format_Profile": "Main",
        "Format_Level": "3.1",
        "Format_Settings_CABAC": "Yes",
        "Format_Settings_RefFrames": "1",
        "CodecID": "avc1",
        "Duration": "5.280",
        "BitRate": "1205959",
        "Width": "1280",
        "Height": "720",
        "Sampled_Width": "1280",
        "Sampled_Height": "720",
        "PixelAspectRatio": "1.000",
        "DisplayAspectRatio": "1.778",
        "Rotation": "0.000",
        "FrameRate_Mode": "CFR",
        "FrameRate_Mode_Original": "VFR",
        "FrameRate": "25.000",
        "FrameCount": "132",
        "ColorSpace": "YUV",
        "ChromaSubsampling": "4:2:0",
        "BitDepth": "8",
        "ScanType": "Progressive",
        "StreamSize": "795933",
        "Encoded_Date": "UTC 1970-01-01 00:00:00",
        "Tagged_Date": "UTC 1970-01-01 00:00:00",
        "extra": {
          "CodecConfigurationBox": "avcC"
        }
      },
      {
        "@type": "Audio",
        "StreamOrder": "1",
        "ID": "2",
        "Format": "AAC",
        "Format_AdditionalFeatures": "LC",
        "CodecID": "mp4a-40-2",
        "Duration": "5.312",
        "BitRate_Mode": "VBR",
        "BitRate": "384000",
        "BitRate_Maximum": "400392",
        "Channels": "6",
        "ChannelPositions": "Front: L C R, Side: L R, LFE",
        "ChannelLayout": "C L R Ls Rs LFE",
        "SamplesPerFrame": "1024",
        "SamplingRate": "48000",
        "SamplingCount": "254976",
        "FrameRate": "46.875",
        "FrameCount": "249",
        "Compression_Mode": "Lossy",
        "StreamSize": "255526",
        "StreamSize_Proportion": "0.24186",
        "Default": "Yes",
        "AlternateGroup": "1",
        "Encoded_Date": "UTC 1970-01-01 00:00:00",
        "Tagged_Date": "UTC 1970-01-01 00:00:00"
      }
    ]
  }
}